<?xml version="1.0" standalone="no"?>
<!DOCTYPE svg PUBLIC "-//W3C//DTD SVG 20010904//EN"
 "http://www.w3.org/TR/2001/REC-SVG-20010904/DTD/svg10.dtd">
<svg version="1.0" xmlns="http://www.w3.org/2000/svg"
 width="1280.000000pt" height="906.000000pt" viewBox="0 0 1280.000000 906.000000"
 preserveAspectRatio="xMidYMid meet">

<g transform="translate(0.000000,906.000000) scale(0.100000,-0.100000)"
fill="#000000" stroke="none">
<path d="M0 4530 l0 -4530 6400 0 6400 0 0 4530 0 4530 -6400 0 -6400 0 0
-4530z m4918 1455 c97 -50 526 -310 529 -321 2 -6 -49 -41 -114 -79 -65 -38
-185 -109 -268 -159 -204 -124 -193 -124 -425 15 -96 58 -217 129 -268 159
-51 29 -91 57 -90 62 3 8 575 348 586 348 1 0 24 -11 50 -25z m-446 -528 c136
-81 252 -155 257 -165 10 -21 0 -51 -25 -73 -11 -9 -113 -74 -229 -145 -115
-71 -220 -138 -232 -151 -23 -22 -23 -25 -23 -300 0 -245 -2 -282 -18 -313
-15 -31 -22 -35 -59 -38 -28 -2 -56 4 -84 19 -83 42 -454 262 -461 273 -4 6
-8 162 -8 347 0 307 2 339 18 357 9 11 91 62 182 115 91 52 218 127 283 166
79 47 124 68 135 63 9 -4 128 -73 264 -155z m1213 77 c72 -42 208 -121 304
-175 96 -55 180 -107 187 -117 10 -13 13 -77 14 -268 0 -239 -1 -253 -21 -278
-11 -14 -24 -26 -29 -26 -14 0 -130 -72 -130 -80 0 -5 36 -29 80 -55 44 -26
85 -55 90 -65 6 -11 10 -148 10 -334 0 -313 0 -315 -22 -340 -13 -13 -212
-134 -443 -267 -231 -133 -512 -296 -625 -361 -157 -90 -213 -118 -240 -118
-27 0 -72 22 -185 88 -83 49 -195 114 -250 145 -56 31 -110 66 -120 77 -19 21
-20 39 -20 488 0 422 2 467 16 470 9 2 71 -29 137 -68 67 -38 126 -70 131 -70
18 0 22 55 10 143 l-13 89 27 24 c36 31 78 31 114 0 l27 -24 -12 -84 c-7 -46
-12 -146 -12 -221 0 -127 -1 -137 -19 -137 -10 0 -73 31 -139 70 -119 69 -142
79 -142 60 0 -5 -1 -147 -1 -315 -1 -227 2 -309 11 -320 6 -8 44 -33 83 -55
54 -31 72 -38 79 -28 9 14 4 287 -7 356 -6 37 -4 47 16 68 30 32 79 32 116 0
l27 -24 -12 -84 c-16 -113 -16 -365 1 -398 19 -37 104 -82 145 -76 29 4 243
124 951 534 128 75 190 116 202 137 17 27 19 54 19 256 0 203 -2 227 -17 241
-35 30 -160 98 -180 98 -12 0 -72 -30 -135 -66 -62 -36 -143 -84 -181 -106
-37 -21 -75 -50 -84 -64 -70 -107 -232 -22 -183 97 14 32 55 59 90 59 28 0 58
16 375 197 149 85 280 166 293 179 21 24 22 33 22 188 0 181 0 181 -80 221
-19 10 -54 31 -77 46 -60 42 -89 38 -201 -28 -423 -247 -437 -254 -467 -249
-16 2 -84 36 -149 75 -67 40 -131 71 -146 71 -24 0 -70 -25 -349 -186 -46 -27
-84 -53 -84 -59 0 -16 415 -254 443 -254 27 0 141 67 148 87 4 13 -130 82
-160 82 -29 0 -58 40 -58 81 0 29 6 42 26 58 41 32 78 27 132 -18 54 -45 184
-121 207 -121 30 0 399 222 452 271 64 60 104 66 155 20 28 -25 33 -36 33 -75
0 -59 -33 -94 -100 -107 -27 -5 -93 -35 -154 -70 -58 -34 -200 -115 -316 -181
-115 -66 -225 -131 -242 -145 l-33 -24 0 -355 c0 -211 4 -354 9 -354 5 0 133
72 285 159 191 111 286 172 311 200 34 37 42 41 87 41 63 0 98 -33 98 -91 0
-60 -18 -88 -64 -100 -23 -6 -53 -15 -68 -20 -15 -4 -139 -73 -275 -152 -476
-276 -514 -298 -523 -292 -6 4 -10 190 -10 484 0 441 -1 480 -17 499 -19 22
-412 252 -432 252 -15 0 -15 -126 0 -186 10 -40 10 -49 -8 -72 -29 -39 -77
-50 -110 -26 -44 33 -49 47 -33 106 8 32 14 109 14 191 l1 139 30 25 c49 42
578 342 603 343 12 0 83 -36 158 -79 75 -45 144 -78 154 -76 23 4 398 221 423
245 17 16 14 19 -65 63 l-82 46 -86 -46 c-47 -25 -104 -63 -127 -85 -31 -28
-51 -38 -76 -38 -43 0 -74 23 -82 60 -11 52 12 81 90 111 39 15 106 48 150 74
116 69 127 75 155 75 14 0 84 -34 155 -76z m2533 -273 c1 -1 2 -28 2 -61 0
-69 -6 -73 -101 -68 l-54 3 -3 59 c-2 40 1 62 10 68 10 6 124 5 146 -1z
m-1594 -21 c79 -18 127 -73 134 -153 9 -117 -65 -185 -213 -195 l-85 -5 0 -98
0 -99 -84 0 c-63 0 -85 4 -89 14 -8 20 -9 490 -1 521 l6 25 147 0 c80 0 164
-5 185 -10z m444 -130 c60 -13 118 -60 143 -114 21 -47 25 -122 7 -128 -7 -3
-66 -6 -132 -6 -65 -1 -121 -4 -124 -7 -3 -3 -1 -18 4 -33 8 -22 16 -28 46
-30 31 -3 40 1 54 23 17 26 21 27 85 23 37 -2 71 -7 76 -11 12 -13 -29 -78
-66 -103 -112 -76 -296 -42 -351 65 -67 133 3 293 141 320 61 12 62 12 117 1z
m476 4 c12 -5 16 -21 16 -75 l0 -69 -29 0 c-16 0 -39 -9 -52 -19 -22 -18 -24
-27 -27 -141 l-4 -121 -76 3 -77 3 0 205 0 205 68 3 67 3 0 -27 0 -27 23 21
c18 17 36 27 74 41 1 1 8 -2 17 -5z m318 -5 c40 -9 63 -21 93 -51 34 -35 37
-41 23 -49 -27 -15 -120 -14 -155 1 -26 11 -37 12 -59 1 -40 -18 -20 -29 69
-41 85 -11 130 -29 151 -63 60 -95 -4 -197 -137 -220 -114 -19 -213 18 -253
94 -11 23 -12 29 -2 30 7 0 34 4 60 8 38 6 53 4 75 -11 30 -19 98 -24 123 -8
24 15 2 26 -95 44 -106 20 -143 47 -152 113 -10 73 43 135 129 152 61 12 71
12 130 0z m777 -15 c66 -26 71 -42 78 -234 l6 -170 -77 0 c-69 0 -76 2 -76 20
0 25 1 25 -56 -5 -51 -27 -80 -30 -133 -15 -46 13 -79 46 -91 89 -8 30 -6 43
13 80 27 56 71 80 173 94 67 10 75 13 72 32 -4 29 -53 32 -88 6 -24 -17 -36
-19 -91 -13 -34 4 -64 12 -66 17 -6 18 36 74 67 90 71 37 190 41 269 9z m505
6 c54 -20 61 -48 61 -235 l0 -170 -80 0 -80 0 -5 150 c-4 134 -7 150 -23 153
-40 8 -47 -14 -47 -152 0 -72 -4 -137 -9 -144 -5 -9 -29 -12 -82 -10 l-74 3
-3 208 -2 207 75 0 c68 0 75 -2 75 -20 0 -22 15 -27 26 -9 21 35 102 44 168
19z m-924 -200 l0 -210 -80 0 -80 0 0 203 c0 112 3 207 7 210 3 4 39 7 80 7
l73 0 0 -210z m-4393 -553 c120 -73 245 -149 277 -168 106 -61 101 -40 104
-426 3 -318 2 -335 -15 -329 -33 13 -588 339 -595 350 -11 16 -10 706 1 706 5
0 108 -60 228 -133z m2856 -6 c41 -20 97 -82 97 -107 0 -11 -94 -44 -123 -44
-10 0 -26 9 -37 20 -11 11 -31 22 -45 26 -32 8 -75 -10 -75 -30 0 -21 24 -32
106 -51 106 -24 149 -49 173 -99 37 -75 22 -146 -42 -203 -48 -42 -98 -58
-187 -58 -89 0 -139 16 -187 58 -34 30 -70 93 -60 104 3 2 35 10 72 16 51 9
70 8 83 -1 53 -38 79 -52 100 -52 60 0 85 49 35 68 -16 5 -53 15 -83 22 -130
29 -180 76 -180 170 0 94 44 150 139 177 63 18 160 10 214 -16z m345 -53 l3
-68 38 0 c44 0 49 -8 43 -67 -4 -42 -5 -43 -43 -43 l-39 0 0 -83 c0 -96 12
-123 53 -115 27 5 27 5 27 -53 l0 -58 -55 -6 c-69 -9 -131 10 -159 48 -18 24
-21 46 -24 147 l-4 118 -29 6 c-29 5 -30 8 -27 53 3 44 5 48 30 51 26 3 27 6
30 65 l3 62 45 6 c25 4 59 6 75 5 30 -1 30 -1 33 -68z m474 -95 c105 -61 131
-228 51 -324 -84 -99 -261 -102 -350 -6 -90 97 -74 254 34 324 65 43 197 46
265 6z m427 23 c7 -9 11 -38 9 -73 -3 -58 -3 -58 -38 -63 -20 -4 -41 -9 -47
-13 -21 -13 -33 -78 -33 -175 l0 -93 -77 3 -78 3 -3 185 c-1 102 0 195 3 208
5 21 10 23 68 20 56 -3 62 -5 65 -25 4 -28 13 -29 29 -3 7 11 27 24 45 29 45
13 44 13 57 -3z m329 -1 c96 -29 158 -111 150 -201 l-3 -39 -80 -2 c-44 -1
-104 -2 -132 -2 -48 -1 -53 -3 -53 -24 0 -32 18 -47 57 -47 24 0 37 7 50 26
16 26 20 26 86 21 38 -3 71 -8 74 -11 2 -2 -5 -22 -16 -44 -52 -103 -228 -133
-338 -59 -173 118 -83 389 133 396 11 1 44 -6 72 -14z"/>
<path d="M6460 5070 l0 -50 50 0 c42 0 52 4 66 25 15 23 15 27 0 50 -14 21
-24 25 -66 25 l-50 0 0 -50z"/>
<path d="M6976 5004 c-9 -8 -16 -24 -16 -35 0 -18 6 -20 52 -17 58 3 69 17 39
47 -25 25 -54 27 -75 5z"/>
<path d="M8487 4864 c-22 -12 -28 -21 -25 -42 2 -22 9 -28 34 -30 36 -4 51 11
56 53 4 36 -21 43 -65 19z"/>
<path d="M7339 4104 c-19 -23 -23 -142 -7 -174 17 -31 62 -39 76 -13 26 50 20
176 -9 194 -22 13 -45 11 -60 -7z"/>
<path d="M8157 4112 c-32 -36 -22 -52 33 -52 43 0 50 3 50 19 0 24 -26 51 -49
51 -10 0 -25 -8 -34 -18z"/>
</g>
</svg>
