<svg id="Layer_1" data-name="Layer 1" xmlns="http://www.w3.org/2000/svg" xmlns:xlink="http://www.w3.org/1999/xlink" viewBox="0 0 47.39 24.95"><defs><style>.cls-1{fill:#fff;}.cls-2{fill:url(#linear-gradient);}.cls-3{fill:url(#linear-gradient-2);}.cls-4{fill:url(#linear-gradient-3);}.cls-5{fill:url(#linear-gradient-4);}.cls-6{fill:url(#linear-gradient-5);}.cls-7{fill:url(#linear-gradient-6);}.cls-8{fill:url(#linear-gradient-7);}.cls-9{fill:url(#linear-gradient-8);}.cls-10{fill:url(#linear-gradient-9);}.cls-11{fill:url(#linear-gradient-10);}.cls-12{fill:url(#linear-gradient-11);}.cls-13{fill:url(#linear-gradient-12);}.cls-14{fill:url(#linear-gradient-13);}.cls-15{fill:url(#linear-gradient-14);}.cls-16{fill:url(#linear-gradient-15);}.cls-17{fill:url(#linear-gradient-16);}</style><linearGradient id="linear-gradient" x1="13.56" y1="10.7" x2="3.93" y2="10.7" gradientUnits="userSpaceOnUse"><stop offset="0" stop-color="#fff"/><stop offset="1" stop-color="#666"/></linearGradient><linearGradient id="linear-gradient-2" x1="9.14" y1="19.03" x2="3.93" y2="19.03" xlink:href="#linear-gradient"/><linearGradient id="linear-gradient-3" x1="19.66" y1="4.54" x2="9.68" y2="4.54" xlink:href="#linear-gradient"/><linearGradient id="linear-gradient-4" x1="30.99" y1="17.96" x2="26.79" y2="17.96" gradientUnits="userSpaceOnUse"><stop offset="0" stop-color="#fff"/><stop offset="0.13" stop-color="#f4f4f4"/><stop offset="0.35" stop-color="#d8d8d8"/><stop offset="0.64" stop-color="#a9a9a9"/><stop offset="0.98" stop-color="#6a6a6a"/><stop offset="1" stop-color="#666"/></linearGradient><linearGradient id="linear-gradient-5" x1="30.67" y1="10.44" x2="26.67" y2="10.44" xlink:href="#linear-gradient-4"/><linearGradient id="linear-gradient-6" x1="47.27" y1="11.04" x2="43.55" y2="11.04" xlink:href="#linear-gradient-4"/><linearGradient id="linear-gradient-7" x1="51.32" y1="11.01" x2="47.89" y2="11.01" xlink:href="#linear-gradient-4"/><linearGradient id="linear-gradient-8" x1="34.66" y1="11.05" x2="30.86" y2="11.05" xlink:href="#linear-gradient-4"/><linearGradient id="linear-gradient-9" x1="37.77" y1="18.57" x2="33.91" y2="18.57" xlink:href="#linear-gradient-4"/><linearGradient id="linear-gradient-10" x1="44.6" y1="18.56" x2="40.81" y2="18.56" xlink:href="#linear-gradient-4"/><linearGradient id="linear-gradient-11" x1="41.18" y1="11.04" x2="37.62" y2="11.04" xlink:href="#linear-gradient-4"/><linearGradient id="linear-gradient-12" x1="33.66" y1="18.01" x2="31.08" y2="18.01" xlink:href="#linear-gradient-4"/><linearGradient id="linear-gradient-13" x1="37.44" y1="11.01" x2="35.17" y2="11.01" xlink:href="#linear-gradient-4"/><linearGradient id="linear-gradient-14" x1="40.58" y1="18.53" x2="38.31" y2="18.53" xlink:href="#linear-gradient-4"/><linearGradient id="linear-gradient-15" x1="43.03" y1="11.05" x2="41.64" y2="11.05" xlink:href="#linear-gradient-4"/><linearGradient id="linear-gradient-16" x1="43.02" y1="8.5" x2="41.64" y2="8.5" xlink:href="#linear-gradient-4"/></defs><path class="cls-1" d="M14.72,18.72c0-1.23,0-2.46,0-3.69a.78.78,0,0,0-.44-.77c-1-.58-2.06-1.19-3.1-1.78-.1-.06-.21-.17-.33-.1s-.07.22-.07.34A3.49,3.49,0,0,0,11,14.08a.66.66,0,0,1-.51.79.7.7,0,0,1-.7-.22A.54.54,0,0,1,9.61,14a4.48,4.48,0,0,0,.16-1.82,4.59,4.59,0,0,1,0-.83.76.76,0,0,1,.38-.6l.37-.22c1.39-.8,2.78-1.59,4.16-2.4a.75.75,0,0,1,.88,0c.59.37,1.2.7,1.8,1.07a.59.59,0,0,0,.66,0l3.21-1.87.13-.08c.12-.09.12-.16,0-.24-.38-.23-.76-.44-1.14-.66a.33.33,0,0,0-.33,0l-1.41.81a1.41,1.41,0,0,0-.29.31.69.69,0,0,1-.89.18A.67.67,0,0,1,17,6.9a.55.55,0,0,1,.42-.48,6.1,6.1,0,0,0,1.77-.83l.63-.38a.91.91,0,0,1,1,0c1.56.93,3.15,1.84,4.74,2.74a.62.62,0,0,1,.34.6c0,.54,0,1.07,0,1.6,0,.7,0,1.4,0,2.1a.67.67,0,0,1-.41.69c-.31.15-.6.34-.91.51s-.28.24,0,.4.61.37.93.53a.65.65,0,0,1,.39.67c0,1,0,2,0,2.95,0,.61,0,1.22,0,1.82a.76.76,0,0,1-.42.75L15.25,26.46a1.12,1.12,0,0,1-1.26,0c-1.13-.71-2.3-1.36-3.47-2l-.24-.14a.89.89,0,0,1-.52-.9c0-.51,0-1,0-1.54,0-1.88,0-3.77,0-5.66,0-.1,0-.21.08-.28s.19,0,.28.06L12,17.07l.13.07c.12.05.19,0,.19-.11a3.85,3.85,0,0,0-.11-1.35.61.61,0,0,1,.28-.81.63.63,0,0,1,.75,0,.59.59,0,0,1,.28.71,3.53,3.53,0,0,0-.13,1.07c0,.57,0,1.15,0,1.72v.19c0,.4-.07.44-.41.25-.58-.32-1.14-.65-1.72-1-.12-.06-.25-.21-.38-.15s-.08.28-.08.43c0,1.52,0,3,0,4.56a.69.69,0,0,0,.44.73c.29.14.56.32.85.48s.25.07.25-.13c0-.79,0-1.58,0-2.37a1.29,1.29,0,0,0-.1-.35.68.68,0,0,1,.23-.85.66.66,0,0,1,.78,0,.61.61,0,0,1,.29.74,3.78,3.78,0,0,0-.13,1.25c0,.66,0,1.31,0,2a.79.79,0,0,0,.46.79c.75.39.84.4,1.56,0,2.85-1.64,5.7-3.3,8.56-4.93a1.19,1.19,0,0,0,.66-1.24,23.53,23.53,0,0,1,0-2.52c0-1-.08-.9-.68-1.24-.24-.13-.48-.28-.71-.43a.48.48,0,0,0-.55,0L19.9,16.13a1.77,1.77,0,0,0-.4.42.83.83,0,0,1-.95.33.88.88,0,0,1-.61-.9.82.82,0,0,1,.78-.8,1.49,1.49,0,0,0,.72-.23c1.54-.89,3.07-1.78,4.62-2.66a1,1,0,0,0,.55-1,12.28,12.28,0,0,1,0-1.82.72.72,0,0,0-.47-.8,5.64,5.64,0,0,1-1-.6.83.83,0,0,0-1,0l-3.88,2.27-.13.07a.82.82,0,0,1-.9,0c-.56-.34-1.13-.66-1.69-1a.72.72,0,0,0-.83,0c-1,.59-2,1.16-3,1.74-.36.21-.36.25,0,.47,1,.6,2.08,1.2,3.11,1.81a.64.64,0,0,0,.77,0c.24-.17.52-.3.77-.46s.2-.2,0-.32a3.24,3.24,0,0,0-1.23-.54.65.65,0,0,1-.51-.62.7.7,0,0,1,.41-.67.6.6,0,0,1,.76.11,3.54,3.54,0,0,0,1.09.79,6.22,6.22,0,0,1,.56.32A.45.45,0,0,0,18,12l1.17-.68,1.7-1a2.2,2.2,0,0,0,.72-.6.82.82,0,0,1,1-.31.9.9,0,0,1,.58.86.87.87,0,0,1-.64.81l-.06,0a2.68,2.68,0,0,0-1.3.51c-1.59.92-3.18,1.85-4.77,2.75a.71.71,0,0,0-.42.71c0,1.75,0,3.51,0,5.26,0,.42,0,.44.38.23l4.29-2.48a1.29,1.29,0,0,0,.46-.44.85.85,0,0,1,.7-.39.81.81,0,0,1,.81.48,1,1,0,0,1-.17,1,.57.57,0,0,1-.39.16,2.62,2.62,0,0,0-1.11.41l-5.83,3.39L15,22.8c-.18.08-.23.05-.24-.14s0-.45,0-.67V18.72Z" transform="translate(-3.93 -1.7)"/><path class="cls-2" d="M4,10.9C4,10,4,9.08,4,8.17a.34.34,0,0,1,.19-.34C5.71,6.91,7.28,6,8.84,5.07a.31.31,0,0,1,.38,0c1.31.78,2.61,1.56,3.92,2.32.57.33.55.75,0,1.06-1.16.69-2.3,1.41-3.45,2.12l-.23.16a.64.64,0,0,0-.3.57c0,.27,0,.54,0,.8,0,1.08,0,2.16,0,3.23a2.24,2.24,0,0,1-.05.52.67.67,0,0,1-.91.49,1.76,1.76,0,0,1-.37-.17C6.61,15.49,5.36,14.74,4.11,14a.34.34,0,0,1-.18-.35c0-.91,0-1.82,0-2.74Z" transform="translate(-3.93 -1.7)"/><path class="cls-3" d="M4,14.54c.53.32,1,.6,1.49.9.85.55,1.73,1,2.61,1.57l.52.32a1.1,1.1,0,0,1,.55.94c0,.61,0,1.23,0,1.84,0,1,0,2.05,0,3.08v.33c-.12,0-.18,0-.24-.07L4.16,20.69a.35.35,0,0,1-.23-.35c0-1.87,0-3.73,0-5.6A1.72,1.72,0,0,1,4,14.54Z" transform="translate(-3.93 -1.7)"/><path class="cls-4" d="M9.68,4.64a.58.58,0,0,1,.22-.18l4.6-2.68a.34.34,0,0,1,.41,0c1.53.92,3.07,1.82,4.6,2.73,0,0,.12,0,.15.13a1,1,0,0,1-.27.18c-1.27.76-2.56,1.47-3.8,2.27a1.85,1.85,0,0,1-.88.33,1,1,0,0,1-.6-.14Q11.92,5.93,9.68,4.64Z" transform="translate(-3.93 -1.7)"/><path class="cls-5" d="M30.86,16.72,29.81,17a.18.18,0,0,1-.23-.09.79.79,0,0,0-.84-.32c-.19,0-.29.13-.29.27s.1.23.24.27l.77.19.6.16a1.36,1.36,0,0,1,.55,2.24,1.82,1.82,0,0,1-.78.48,3.17,3.17,0,0,1-1.88,0,1.69,1.69,0,0,1-1.12-1.06c-.07-.19-.06-.2.14-.24l.9-.17a.27.27,0,0,1,.33.14,1,1,0,0,0,1.15.31.24.24,0,0,0,0-.44,1,1,0,0,0-.37-.14A8,8,0,0,1,28,18.38,1.28,1.28,0,0,1,27,17.15a1.42,1.42,0,0,1,.84-1.39,1.63,1.63,0,0,1,.44-.15,2.89,2.89,0,0,1,1.43,0A1.68,1.68,0,0,1,30.86,16.72Z" transform="translate(-3.93 -1.7)"/><path class="cls-6" d="M26.67,10.45c0-.71,0-1.42,0-2.13,0-.22,0-.23.21-.23.77,0,1.54,0,2.31,0a2.23,2.23,0,0,1,.45.08A1.46,1.46,0,0,1,30,10.84a1.73,1.73,0,0,1-.88.23h-.74c-.16,0-.2.06-.19.2v1.26c0,.27,0,.27-.27.27h-1c-.24,0-.24,0-.24-.26Zm1.44-.84v.3c0,.09,0,.14.13.14a1.9,1.9,0,0,0,.67,0,.37.37,0,0,0,.3-.41c0-.21-.08-.32-.3-.4a.92.92,0,0,0-.37,0C28,9.17,28.12,9.1,28.11,9.61Z" transform="translate(-3.93 -1.7)"/><path class="cls-7" d="M45.83,10.51c0-.33-.09-.41-.38-.42a.5.5,0,0,0-.5.23c-.06.1-.14.1-.24.09l-.89-.08c-.15,0-.17-.05-.12-.2a1.17,1.17,0,0,1,.66-.7,3,3,0,0,1,2.19,0,.88.88,0,0,1,.59.79c0,.42,0,.84,0,1.26a5.14,5.14,0,0,0,.1,1.34h-1.2c-.09,0-.12-.05-.13-.13a.66.66,0,0,0-.06-.27.18.18,0,0,0-.1.07,1.44,1.44,0,0,1-1.57.3,1,1,0,0,1-.39-1.65,1.7,1.7,0,0,1,.74-.42A7.18,7.18,0,0,1,45.83,10.51Zm0,.68a1.71,1.71,0,0,0-.25,0,.92.92,0,0,0-.47.21.33.33,0,0,0-.09.39.3.3,0,0,0,.33.17.45.45,0,0,0,.49-.4A.78.78,0,0,0,45.81,11.19Z" transform="translate(-3.93 -1.7)"/><path class="cls-8" d="M49.21,9.64a.08.08,0,0,0,.07,0,1.26,1.26,0,0,1,1.42-.29.85.85,0,0,1,.6.84c0,.3,0,.6,0,.9v1.51c0,.23,0,.24-.23.24s-.64,0-1,0c-.15,0-.2-.05-.2-.19,0-.62,0-1.23,0-1.85,0-.1,0-.21,0-.31s-.07-.23-.22-.25a.34.34,0,0,0-.37.17.86.86,0,0,0-.06.39v1.78c0,.25,0,.26-.26.26s-.61,0-.92,0-.21-.05-.21-.21c0-.69,0-1.37,0-2.06,0-.35,0-.7,0-1,0-.14,0-.2.19-.19s.58,0,.87,0,.23,0,.22.21c0,0,0,.08,0,.12Z" transform="translate(-3.93 -1.7)"/><path class="cls-9" d="M32.34,11.35c0,.47.15.68.55.64a.42.42,0,0,0,.41-.27c.05-.17.15-.18.3-.17a8.42,8.42,0,0,1,1,.09.47.47,0,0,1-.1.35,1.51,1.51,0,0,1-.78.71,2.42,2.42,0,0,1-1.83,0,1.7,1.7,0,0,1-1-1.79,1.78,1.78,0,0,1,1.31-1.6,2.19,2.19,0,0,1,1.19,0,1.65,1.65,0,0,1,1.24,1.35,3,3,0,0,1,0,.43c0,.23,0,.24-.23.24H32.64A.62.62,0,0,0,32.34,11.35Zm0-.71H33c.29,0,.34-.07.23-.34a.41.41,0,0,0-.38-.26A.47.47,0,0,0,32.33,10.64Z" transform="translate(-3.93 -1.7)"/><path class="cls-10" d="M35.86,16.75a1.91,1.91,0,0,1,1.16.32,1.74,1.74,0,0,1,.71,1.81,1.68,1.68,0,0,1-1.29,1.42,2.23,2.23,0,0,1-1.12,0,1.79,1.79,0,0,1-1.41-1.75,1.76,1.76,0,0,1,1.4-1.78l.24-.05Zm.43,1.75c0-.13,0-.26,0-.39a.8.8,0,0,0,0-.15c-.07-.24-.18-.34-.38-.35a.39.39,0,0,0-.41.34,2.48,2.48,0,0,0,0,1.24.38.38,0,0,0,.39.32c.21,0,.32-.11.38-.34A2.5,2.5,0,0,0,36.29,18.5Z" transform="translate(-3.93 -1.7)"/><path class="cls-11" d="M44.6,19.16a1.58,1.58,0,0,1-1,1.09,2.49,2.49,0,0,1-1.55,0,1.72,1.72,0,0,1-1.22-1.73,1.8,1.8,0,0,1,1.31-1.74,2.29,2.29,0,0,1,1.37.06,1.77,1.77,0,0,1,1.11,1.84c0,.09,0,.13-.13.13a1.61,1.61,0,0,0-.22,0c-.6,0-1.21,0-1.81,0-.18,0-.2,0-.17.19s.15.43.37.47a.53.53,0,0,0,.62-.28c.05-.1.09-.17.22-.16C43.84,19.1,44.2,19.08,44.6,19.16Zm-1.4-1c0-.42-.16-.61-.49-.59s-.46.23-.42.59Z" transform="translate(-3.93 -1.7)"/><path class="cls-12" d="M41,10.11l-.88.17a.3.3,0,0,1-.27-.1.83.83,0,0,0-.79-.1.18.18,0,0,0-.13.12c0,.09.06.13.13.16a3.85,3.85,0,0,0,.67.09,3.34,3.34,0,0,1,.63.12,1,1,0,0,1,.77.83,1.06,1.06,0,0,1-.43,1.11,1.71,1.71,0,0,1-.82.31,2.89,2.89,0,0,1-1.4-.09,1.32,1.32,0,0,1-.88-.91,8.4,8.4,0,0,1,1-.14c.07,0,.11,0,.16.08a1,1,0,0,0,1.06.18A.14.14,0,0,0,40,11.8c0-.1-.08-.14-.16-.16l-.42-.07a7,7,0,0,1-.91-.18,1,1,0,0,1-.35-1.75,1.48,1.48,0,0,1,.53-.3,2.53,2.53,0,0,1,1.61,0A1.22,1.22,0,0,1,41,10.11Z" transform="translate(-3.93 -1.7)"/><path class="cls-13" d="M33.62,19.34a7.6,7.6,0,0,1,0,.82.15.15,0,0,1-.14.16,3.07,3.07,0,0,1-1.13,0,.88.88,0,0,1-.72-.75,3.29,3.29,0,0,1,0-.7v-1c0-.13,0-.2-.19-.2-.32,0-.32,0-.32-.33a.48.48,0,0,1,0-.12c0-.12-.05-.26,0-.36s.23,0,.35,0,.14-.09.15-.19c0-.26,0-.53,0-.8s0-.18.18-.18c.32,0,.64,0,1,0,.13,0,.19,0,.19.18s0,.55,0,.83c0,.11,0,.17.16.16h.06c.15,0,.34-.07.44.05s0,.3,0,.45v.06c0,.34,0,.3-.29.31s-.39-.07-.4.39V19c0,.35.11.44.46.4Z" transform="translate(-3.93 -1.7)"/><path class="cls-14" d="M36.38,9.8a.88.88,0,0,1,.9-.57c.12,0,.16,0,.16.16v.9c0,.11,0,.18-.15.16H37.1a.57.57,0,0,0-.58.53,5.72,5.72,0,0,0,0,.83c0,.27,0,.53,0,.8s0,.21-.19.2c-.32,0-.64,0-1,0-.16,0-.19-.07-.19-.2,0-1,0-2.07,0-3.11,0-.17.07-.21.22-.2s.49,0,.74,0,.22.05.2.21A.49.49,0,0,0,36.38,9.8Z" transform="translate(-3.93 -1.7)"/><path class="cls-15" d="M39.51,17.3c.06-.08.1-.16.16-.23a.84.84,0,0,1,.78-.33c.1,0,.13.05.13.14v.95c0,.12-.06.14-.15.13a.81.81,0,0,0-.22,0,.55.55,0,0,0-.54.5,3,3,0,0,0,0,.42v1.17c0,.26,0,.26-.25.26s-.51,0-.77,0-.31,0-.31-.29V17.59c0-.2,0-.39,0-.59s0-.2.19-.2h.77c.17,0,.22.06.21.22A.4.4,0,0,0,39.51,17.3Z" transform="translate(-3.93 -1.7)"/><path class="cls-16" d="M43,11.05c0,.51,0,1,0,1.54,0,.15,0,.22-.21.21-.33,0-.66,0-1,0-.15,0-.21,0-.2-.19,0-.34,0-.68,0-1V9.53c0-.24,0-.24.23-.24h.93c.22,0,.22,0,.22.22C43,10,43,10.54,43,11.05Z" transform="translate(-3.93 -1.7)"/><path class="cls-17" d="M42.33,9H41.8c-.11,0-.16,0-.16-.16V8.12c0-.11,0-.15.15-.15h1.1C43,8,43,8,43,8.1v.8C43,9,43,9,42.88,9Z" transform="translate(-3.93 -1.7)"/></svg>